<svg xmlns="http://www.w3.org/2000/svg" xmlns:xlink="http://www.w3.org/1999/xlink" id="Layer_1" x="0px" y="0px" viewBox="0 0 200 100" style="enable-background:new 0 0 200 100;" xml:space="preserve"><style type="text/css">	.st0{fill:#653492;}	.st1{fill:#FFFFFF;}</style><g>	<path class="st0" d="M199.2,85.4l0-10.1c-2.2,0-3.9-1.7-3.9-3.9c0-2.2,1.7-3.9,3.9-3.9l0-3c-2.2,0-3.9-1.7-3.9-3.9  c0-2.2,1.7-3.9,3.9-3.9l0-3c-2.2,0-3.9-1.7-3.9-3.9c0-2.2,1.7-3.9,3.9-3.9l0-3c-2.2,0-3.9-1.7-3.9-3.9c0-2.2,1.7-3.9,3.9-3.9l0-3  c-2.2,0-3.9-1.7-3.9-3.9s1.7-3.9,3.9-3.9l0-9.7c-7.5,0-13.5-6-13.5-13.5L14.3,1.1c0,7.5-6,13.5-13.5,13.5l0,9.7  c2.2,0,3.9,1.7,3.9,3.9c0,2.2-1.7,3.9-3.9,3.9l0,3c2.2,0,3.9,1.7,3.9,3.9C4.8,41.2,3,43,0.8,43l0,3c2.2,0,3.9,1.7,3.9,3.9  c0,2.2-1.7,3.9-3.9,3.9l0,3c2.2,0,3.9,1.7,3.9,3.9S3,64.7,0.9,64.7l0,3c2.2,0,3.9,1.7,3.9,3.9c0,2.2-1.7,3.9-3.9,3.9l0,10.1  c7.5,0,13.5,6,13.5,13.5l171.3-0.3C185.7,91.5,191.7,85.4,199.2,85.4z"></path>	<g>		<rect x="18.4" y="11.4" class="st1" width="3.1" height="3.1"></rect>		<rect x="24.3" y="11.4" class="st1" width="3.1" height="3.1"></rect>		<rect x="30.2" y="11.4" class="st1" width="3.1" height="3.1"></rect>		<rect x="36.1" y="11.4" class="st1" width="3.1" height="3.1"></rect>		<rect x="42.1" y="11.4" class="st1" width="3.1" height="3.1"></rect>		<rect x="48" y="11.4" class="st1" width="3.1" height="3.1"></rect>		<rect x="53.9" y="11.4" class="st1" width="3.1" height="3.1"></rect>		<rect x="59.9" y="11.4" class="st1" width="3.1" height="3.1"></rect>		<rect x="65.8" y="11.4" class="st1" width="3.1" height="3.1"></rect>		<rect x="71.7" y="11.4" class="st1" width="3.1" height="3.1"></rect>		<rect x="77.7" y="11.4" class="st1" width="3.1" height="3.1"></rect>		<rect x="83.6" y="11.4" class="st1" width="3.1" height="3.1"></rect>		<rect x="89.5" y="11.4" class="st1" width="3.1" height="3.1"></rect>		<rect x="95.5" y="11.4" class="st1" width="3.1" height="3.1"></rect>		<rect x="101.4" y="11.4" class="st1" width="3.1" height="3.1"></rect>		<rect x="107.3" y="11.4" class="st1" width="3.1" height="3.1"></rect>		<rect x="113.3" y="11.4" class="st1" width="3.1" height="3.1"></rect>		<rect x="119.2" y="11.4" class="st1" width="3.1" height="3.1"></rect>		<rect x="125.1" y="11.4" class="st1" width="3.1" height="3.1"></rect>		<rect x="131.1" y="11.4" class="st1" width="3.1" height="3.1"></rect>		<rect x="137" y="11.4" class="st1" width="3.1" height="3.1"></rect>		<rect x="142.9" y="11.4" class="st1" width="3.1" height="3.1"></rect>		<rect x="148.8" y="11.4" class="st1" width="3.1" height="3.1"></rect>		<rect x="154.8" y="11.4" class="st1" width="3.1" height="3.1"></rect>		<rect x="160.7" y="11.4" class="st1" width="3.1" height="3.1"></rect>		<rect x="166.6" y="11.4" class="st1" width="3.1" height="3.1"></rect>		<rect x="172.6" y="11.4" class="st1" width="3.1" height="3.1"></rect>		<rect x="178.5" y="11.4" class="st1" width="3.1" height="3.1"></rect>	</g>	<g>		<polygon class="st1" points="30.7,86.2 31.6,88 33.5,88.3 32.1,89.6 32.4,91.5 30.7,90.6 29,91.5 29.3,89.6 27.9,88.3 29.8,88      "></polygon>		<polygon class="st1" points="38,86.2 38.9,88 40.8,88.3 39.4,89.6 39.7,91.5 38,90.6 36.3,91.5 36.6,89.6 35.2,88.3 37.1,88   "></polygon>		<polygon class="st1" points="45.3,86.2 46.2,88 48.1,88.3 46.7,89.6 47,91.5 45.3,90.6 43.6,91.5 43.9,89.6 42.5,88.3 44.4,88      "></polygon>		<polygon class="st1" points="52.6,86.2 53.4,88 55.4,88.3 54,89.6 54.3,91.5 52.6,90.6 50.9,91.5 51.2,89.6 49.8,88.3 51.7,88      "></polygon>		<polygon class="st1" points="59.9,86.2 60.7,88 62.7,88.3 61.3,89.6 61.6,91.5 59.9,90.6 58.2,91.5 58.5,89.6 57.1,88.3 59,88      "></polygon>		<polygon class="st1" points="67.2,86.2 68,88 70,88.3 68.6,89.6 68.9,91.5 67.2,90.6 65.5,91.5 65.8,89.6 64.4,88.3 66.3,88   "></polygon>		<polygon class="st1" points="74.5,86.2 75.3,88 77.2,88.3 75.9,89.6 76.2,91.5 74.5,90.6 72.8,91.5 73.1,89.6 71.7,88.3 73.6,88      "></polygon>		<polygon class="st1" points="81.8,86.2 82.6,88 84.5,88.3 83.2,89.6 83.5,91.5 81.8,90.6 80,91.5 80.4,89.6 79,88.3 80.9,88   "></polygon>		<polygon class="st1" points="89.1,86.2 89.9,88 91.8,88.3 90.4,89.6 90.8,91.5 89.1,90.6 87.3,91.5 87.7,89.6 86.3,88.3 88.2,88      "></polygon>		<polygon class="st1" points="96.4,86.2 97.2,88 99.1,88.3 97.7,89.6 98.1,91.5 96.4,90.6 94.6,91.5 95,89.6 93.6,88.3 95.5,88      "></polygon>		<polygon class="st1" points="103.6,86.2 104.5,88 106.4,88.3 105,89.6 105.4,91.5 103.6,90.6 101.9,91.5 102.3,89.6 100.9,88.3    102.8,88   "></polygon>		<polygon class="st1" points="110.9,86.2 111.8,88 113.7,88.3 112.3,89.6 112.7,91.5 110.9,90.6 109.2,91.5 109.6,89.6 108.2,88.3    110.1,88   "></polygon>		<polygon class="st1" points="118.2,86.2 119.1,88 121,88.3 119.6,89.6 120,91.5 118.2,90.6 116.5,91.5 116.8,89.6 115.5,88.3    117.4,88   "></polygon>		<polygon class="st1" points="125.5,86.2 126.4,88 128.3,88.3 126.9,89.6 127.2,91.5 125.5,90.6 123.8,91.5 124.1,89.6 122.8,88.3    124.7,88   "></polygon>		<polygon class="st1" points="132.8,86.2 133.7,88 135.6,88.3 134.2,89.6 134.5,91.5 132.8,90.6 131.1,91.5 131.4,89.6 130,88.3    132,88   "></polygon>		<polygon class="st1" points="140.1,86.2 141,88 142.9,88.3 141.5,89.6 141.8,91.5 140.1,90.6 138.4,91.5 138.7,89.6 137.3,88.3    139.3,88   "></polygon>		<polygon class="st1" points="147.4,86.2 148.3,88 150.2,88.3 148.8,89.6 149.1,91.5 147.4,90.6 145.7,91.5 146,89.6 144.6,88.3    146.6,88   "></polygon>		<polygon class="st1" points="154.7,86.2 155.6,88 157.5,88.3 156.1,89.6 156.4,91.5 154.7,90.6 153,91.5 153.3,89.6 151.9,88.3    153.8,88   "></polygon>		<polygon class="st1" points="162,86.2 162.9,88 164.8,88.3 163.4,89.6 163.7,91.5 162,90.6 160.3,91.5 160.6,89.6 159.2,88.3    161.1,88   "></polygon>		<polygon class="st1" points="169.3,86.2 170.2,88 172.1,88.3 170.7,89.6 171,91.5 169.3,90.6 167.6,91.5 167.9,89.6 166.5,88.3    168.4,88   "></polygon>	</g>	<g>		<g>			<path class="st1" d="M23,47.7c0-5.8,4.9-10.8,10.7-10.8c2.7,0,5.1,1.1,7.2,3.2l-2.4,3.3c-1.4-1.4-3.1-2.2-4.9-2.2    c-3.3,0-6.5,2.9-6.5,6.6c0,3.7,3.3,6.5,6.5,6.5c1.9,0,3.5-1,4.9-2.4l2.4,3.4c-1.8,1.8-4,3.2-7.2,3.2C27.8,58.4,23,53.5,23,47.7z"></path>			<path class="st1" d="M43.7,37.3h4.2V58h-4.2V37.3z"></path>			<path class="st1" d="M68.6,37.3v21.1h-0.2L56.1,46.5V58H52V37h0.2l12.2,11.9V37.3H68.6z"></path>			<path class="st1" d="M76.8,41.4v4h7.1v4.1h-7.1v4.3h8.3V58H72.6V37.3h12.5v4.1H76.8z"></path>			<path class="st1" d="M108.8,36.8V58h-4.2v-9l-5.9,8.7h0l-6-8.7v9h-4.2V36.8h0.2l9.9,13.6l9.9-13.6H108.8z"></path>			<path class="st1" d="M125.4,55.1h-8.3l-1.3,2.9h-4.5l9.9-21.2h0.1l9.9,21.2h-4.5L125.4,55.1z M123.8,51.6l-2.5-5.5l-2.5,5.5    H123.8z"></path>			<path class="st1" d="M144.3,41.5h-5.1V58H135V41.5h-5.1v-4.1h14.3V41.5z"></path>			<path class="st1" d="M151.2,41.4v4h7.1v4.1h-7.1v4.3h8.3V58h-12.5V37.3h12.5v4.1H151.2z"></path>			<path class="st1" d="M162,54.4l3.3-2.3c0.9,1.5,2.2,2.1,4,2.1c1.9,0,3.3-0.8,3.3-1.9c0-1.5-2.5-2.7-4.6-3.8    c-2.3-1.2-4.9-2.4-4.9-5.7c0-3.6,3-5.9,6.8-5.9c2.8,0,5.2,1.2,6.1,3.7l-3.1,2.1c-0.6-1.2-1.8-1.7-3-1.7c-1.6,0-2.7,0.9-2.7,2    c0,1.2,1.6,1.7,3.9,2.8c3.4,1.6,5.6,3.4,5.6,6.5c0,3.8-3.1,6.2-7.5,6.2C165.9,58.4,163.4,57,162,54.4z"></path>		</g>		<g>			<g>				<path class="st1" d="M26.4,68.2c-0.1,0-0.1,0-0.1-0.1c0,0-0.1-0.1-0.1-0.1v-4.3h-1.4c-0.1,0-0.1,0-0.1-0.1c0,0-0.1-0.1-0.1-0.1     V63c0-0.1,0-0.1,0.1-0.1c0,0,0.1-0.1,0.1-0.1h4c0.1,0,0.1,0,0.1,0.1c0,0,0.1,0.1,0.1,0.1v0.6c0,0.1,0,0.1-0.1,0.1     c0,0-0.1,0.1-0.1,0.1h-1.4v4.3c0,0.1,0,0.1-0.1,0.1c0,0-0.1,0.1-0.1,0.1H26.4z"></path>				<path class="st1" d="M31.1,68.3c-0.3,0-0.6-0.1-0.8-0.2c-0.2-0.1-0.4-0.3-0.5-0.6s-0.2-0.6-0.2-0.9v-2.2c0-0.1,0-0.1,0.1-0.1     c0,0,0.1-0.1,0.1-0.1h0.7c0.1,0,0.1,0,0.1,0.1c0,0,0.1,0.1,0.1,0.1v2.1c0,0.6,0.3,1,0.9,1c0.3,0,0.5-0.1,0.6-0.3     c0.2-0.2,0.2-0.4,0.2-0.7v-2.1c0-0.1,0-0.1,0.1-0.1c0,0,0.1-0.1,0.1-0.1h0.7c0.1,0,0.1,0,0.1,0.1c0,0,0.1,0.1,0.1,0.1v3.7     c0,0.1,0,0.1-0.1,0.1c0,0-0.1,0.1-0.1,0.1h-0.6c-0.1,0-0.1,0-0.1-0.1c0,0-0.1-0.1-0.1-0.1v-0.3c-0.1,0.2-0.3,0.3-0.5,0.4     C31.7,68.3,31.4,68.3,31.1,68.3z"></path>				<path class="st1" d="M35,68.2c-0.1,0-0.1,0-0.1-0.1c0,0-0.1-0.1-0.1-0.1v-3.7c0-0.1,0-0.1,0.1-0.1c0,0,0.1-0.1,0.1-0.1h0.6     c0.1,0,0.1,0,0.1,0.1c0,0,0.1,0.1,0.1,0.1v0.3c0.1-0.2,0.3-0.3,0.5-0.4c0.2-0.1,0.5-0.2,0.8-0.2c0.3,0,0.6,0.1,0.8,0.2     c0.2,0.1,0.4,0.3,0.5,0.6c0.1,0.3,0.2,0.6,0.2,0.9v2.2c0,0.1,0,0.1-0.1,0.1c0,0-0.1,0.1-0.1,0.1h-0.7c-0.1,0-0.1,0-0.1-0.1     c0,0-0.1-0.1-0.1-0.1v-2.1c0-0.3-0.1-0.5-0.2-0.7c-0.1-0.2-0.4-0.3-0.6-0.3c-0.3,0-0.5,0.1-0.6,0.3c-0.2,0.2-0.2,0.4-0.2,0.7     v2.1c0,0.1,0,0.1-0.1,0.1c0,0-0.1,0.1-0.1,0.1H35z"></path>				<path class="st1" d="M40.2,63.5c-0.1,0-0.1,0-0.1-0.1c0,0-0.1-0.1-0.1-0.1v-0.6c0-0.1,0-0.1,0.1-0.1c0,0,0.1-0.1,0.1-0.1H41     c0.1,0,0.1,0,0.1,0.1c0,0,0.1,0.1,0.1,0.1v0.6c0,0.1,0,0.1-0.1,0.1c0,0-0.1,0.1-0.1,0.1H40.2z M40.3,68.2c-0.1,0-0.1,0-0.1-0.1     c0,0-0.1-0.1-0.1-0.1v-3.7c0-0.1,0-0.1,0.1-0.1c0,0,0.1-0.1,0.1-0.1h0.6c0.1,0,0.1,0,0.1,0.1c0,0,0.1,0.1,0.1,0.1v3.7     c0,0.1,0,0.1-0.1,0.1c0,0-0.1,0.1-0.1,0.1H40.3z"></path>				<path class="st1" d="M42.7,68.2c-0.1,0-0.1,0-0.1-0.1c0,0-0.1-0.1-0.1-0.1v-3.7c0-0.1,0-0.1,0.1-0.1c0,0,0.1-0.1,0.1-0.1h0.6     c0.1,0,0.1,0,0.1,0.1c0,0,0.1,0.1,0.1,0.1v0.3c0.1-0.2,0.3-0.3,0.5-0.4c0.2-0.1,0.5-0.2,0.8-0.2c0.3,0,0.6,0.1,0.8,0.2     c0.2,0.1,0.4,0.3,0.5,0.6c0.1,0.3,0.2,0.6,0.2,0.9v2.2c0,0.1,0,0.1-0.1,0.1c0,0-0.1,0.1-0.1,0.1h-0.7c-0.1,0-0.1,0-0.1-0.1     c0,0-0.1-0.1-0.1-0.1v-2.1c0-0.3-0.1-0.5-0.2-0.7c-0.1-0.2-0.4-0.3-0.6-0.3c-0.3,0-0.5,0.1-0.6,0.3c-0.2,0.2-0.2,0.4-0.2,0.7     v2.1c0,0.1,0,0.1-0.1,0.1c0,0-0.1,0.1-0.1,0.1H42.7z"></path>				<path class="st1" d="M49.6,70c-0.4,0-0.7,0-0.9-0.1c-0.2-0.1-0.4-0.2-0.6-0.4c-0.1-0.1-0.2-0.3-0.3-0.4     c-0.1-0.1-0.1-0.2-0.1-0.3c0-0.1,0-0.1,0.1-0.1c0,0,0.1-0.1,0.1-0.1h0.7c0.1,0,0.1,0,0.1,0c0,0,0.1,0.1,0.1,0.1     c0,0.1,0.1,0.1,0.1,0.2c0.1,0.1,0.1,0.1,0.2,0.2c0.1,0.1,0.3,0.1,0.4,0.1c0.2,0,0.4,0,0.5-0.1c0.1-0.1,0.2-0.2,0.3-0.3     c0.1-0.1,0.1-0.3,0.1-0.6v-0.5c-0.1,0.2-0.3,0.3-0.5,0.4c-0.2,0.1-0.4,0.1-0.7,0.1c-0.3,0-0.5,0-0.7-0.1     c-0.2-0.1-0.4-0.2-0.5-0.4c-0.1-0.2-0.2-0.4-0.3-0.6c-0.1-0.2-0.1-0.5-0.1-0.7c0-0.1,0-0.3,0-0.4c0-0.3,0.1-0.5,0.1-0.7     c0.1-0.2,0.2-0.4,0.3-0.6c0.1-0.2,0.3-0.3,0.5-0.4s0.4-0.1,0.7-0.1c0.3,0,0.5,0.1,0.8,0.2c0.2,0.1,0.4,0.3,0.5,0.4v-0.3     c0-0.1,0-0.1,0.1-0.1c0,0,0.1-0.1,0.1-0.1h0.6c0.1,0,0.1,0,0.1,0.1c0,0,0.1,0.1,0.1,0.1l0,3.8c0,0.4-0.1,0.7-0.2,1     c-0.1,0.3-0.4,0.5-0.6,0.6C50.5,69.9,50.1,70,49.6,70z M49.6,67.4c0.2,0,0.4,0,0.5-0.1c0.1-0.1,0.2-0.2,0.3-0.4     c0.1-0.2,0.1-0.3,0.1-0.5c0-0.1,0-0.2,0-0.3c0-0.1,0-0.2,0-0.3c0-0.2,0-0.3-0.1-0.5c-0.1-0.1-0.2-0.3-0.3-0.4     c-0.1-0.1-0.3-0.1-0.5-0.1c-0.2,0-0.4,0-0.5,0.1c-0.1,0.1-0.2,0.2-0.3,0.4c-0.1,0.2-0.1,0.3-0.1,0.5c0,0.1,0,0.3,0,0.4     c0,0.2,0,0.4,0.1,0.5c0.1,0.2,0.1,0.3,0.3,0.4C49.2,67.3,49.4,67.4,49.6,67.4z"></path>				<path class="st1" d="M55.5,68.2c-0.1,0-0.1,0-0.1-0.1c0,0-0.1-0.1-0.1-0.1V63c0-0.1,0-0.1,0.1-0.1c0,0,0.1-0.1,0.1-0.1h3.4     c0.1,0,0.1,0,0.1,0.1c0,0,0.1,0.1,0.1,0.1v0.5c0,0.1,0,0.1-0.1,0.1c0,0-0.1,0.1-0.1,0.1h-2.6v1.4h2.4c0.1,0,0.1,0,0.1,0.1     c0,0,0.1,0.1,0.1,0.1v0.5c0,0.1,0,0.1-0.1,0.1c0,0-0.1,0.1-0.1,0.1h-2.4v1.4H59c0.1,0,0.1,0,0.1,0.1s0.1,0.1,0.1,0.1v0.5     c0,0.1,0,0.1-0.1,0.1c0,0-0.1,0.1-0.1,0.1H55.5z"></path>				<path class="st1" d="M60.6,68.2c-0.1,0-0.1,0-0.1-0.1c0,0-0.1-0.1-0.1-0.1v-3.7c0-0.1,0-0.1,0.1-0.1c0,0,0.1-0.1,0.1-0.1h0.6     c0.1,0,0.1,0,0.1,0.1c0,0,0.1,0.1,0.1,0.1v0.3c0.1-0.1,0.3-0.3,0.4-0.4c0.2-0.1,0.4-0.2,0.7-0.2c0.6,0,1,0.2,1.2,0.7     c0.1-0.2,0.3-0.4,0.5-0.5c0.2-0.1,0.5-0.2,0.8-0.2c0.3,0,0.5,0.1,0.7,0.2c0.2,0.1,0.4,0.3,0.5,0.6c0.1,0.3,0.2,0.6,0.2,1v2.2     c0,0.1,0,0.1-0.1,0.1c0,0-0.1,0.1-0.1,0.1h-0.6c-0.1,0-0.1,0-0.1-0.1c0,0-0.1-0.1-0.1-0.1v-2.2c0-0.2,0-0.4-0.1-0.6     c-0.1-0.1-0.2-0.2-0.3-0.3c-0.1-0.1-0.2-0.1-0.4-0.1c-0.1,0-0.2,0-0.3,0.1c-0.1,0.1-0.2,0.2-0.3,0.3C64,65.5,64,65.6,64,65.9     v2.2c0,0.1,0,0.1-0.1,0.1c0,0-0.1,0.1-0.1,0.1h-0.6c-0.1,0-0.1,0-0.1-0.1c0,0-0.1-0.1-0.1-0.1v-2.2c0-0.2,0-0.4-0.1-0.6     c-0.1-0.1-0.2-0.2-0.3-0.3c-0.1-0.1-0.2-0.1-0.4-0.1c-0.1,0-0.2,0-0.4,0.1c-0.1,0.1-0.2,0.2-0.3,0.3c-0.1,0.1-0.1,0.3-0.1,0.6     v2.2c0,0.1,0,0.1-0.1,0.1c0,0-0.1,0.1-0.1,0.1H60.6z"></path>				<path class="st1" d="M69.7,68.3c-0.4,0-0.8-0.1-1.1-0.2c-0.3-0.1-0.5-0.4-0.6-0.6c-0.1-0.3-0.2-0.6-0.3-0.9c0-0.1,0-0.2,0-0.3     c0-0.1,0-0.3,0-0.3c0-0.4,0.1-0.7,0.3-0.9c0.2-0.3,0.4-0.5,0.7-0.6c0.3-0.1,0.6-0.2,1-0.2c0.4,0,0.8,0.1,1,0.2     c0.3,0.1,0.5,0.4,0.7,0.6c0.2,0.3,0.2,0.6,0.3,0.9c0,0.1,0,0.2,0,0.3c0,0.1,0,0.3,0,0.3c0,0.4-0.1,0.7-0.3,0.9     c-0.1,0.3-0.4,0.5-0.6,0.6C70.5,68.3,70.1,68.3,69.7,68.3z M69.7,67.6c0.3,0,0.5-0.1,0.6-0.3c0.2-0.2,0.2-0.4,0.3-0.8     c0-0.1,0-0.2,0-0.3s0-0.2,0-0.3c0-0.3-0.1-0.6-0.3-0.8c-0.2-0.2-0.4-0.3-0.6-0.3c-0.3,0-0.5,0.1-0.6,0.3     c-0.2,0.2-0.2,0.4-0.3,0.8c0,0.1,0,0.2,0,0.3s0,0.2,0,0.3c0,0.3,0.1,0.6,0.3,0.8C69.2,67.5,69.4,67.6,69.7,67.6z"></path>				<path class="st1" d="M74.7,68.2c-0.3,0-0.6-0.1-0.8-0.2c-0.2-0.1-0.4-0.3-0.5-0.5c-0.1-0.2-0.2-0.5-0.2-0.8V65h-0.6     c-0.1,0-0.1,0-0.1-0.1c0,0-0.1-0.1-0.1-0.1v-0.4c0-0.1,0-0.1,0.1-0.1c0,0,0.1-0.1,0.1-0.1h0.6v-1.3c0-0.1,0-0.1,0.1-0.1     c0,0,0.1-0.1,0.1-0.1h0.6c0.1,0,0.1,0,0.1,0.1c0,0,0.1,0.1,0.1,0.1v1.3h1c0.1,0,0.1,0,0.1,0.1c0,0,0.1,0.1,0.1,0.1v0.4     c0,0.1,0,0.1-0.1,0.1c0,0-0.1,0.1-0.1,0.1h-1v1.7c0,0.2,0,0.4,0.1,0.5c0.1,0.1,0.2,0.2,0.4,0.2h0.5c0.1,0,0.1,0,0.1,0.1     c0,0,0.1,0.1,0.1,0.1v0.5c0,0.1,0,0.1-0.1,0.1c0,0-0.1,0.1-0.1,0.1H74.7z"></path>				<path class="st1" d="M76.8,63.5c-0.1,0-0.1,0-0.1-0.1c0,0-0.1-0.1-0.1-0.1v-0.6c0-0.1,0-0.1,0.1-0.1s0.1-0.1,0.1-0.1h0.7     c0.1,0,0.1,0,0.1,0.1c0,0,0.1,0.1,0.1,0.1v0.6c0,0.1,0,0.1-0.1,0.1c0,0-0.1,0.1-0.1,0.1H76.8z M76.8,68.2c-0.1,0-0.1,0-0.1-0.1     c0,0-0.1-0.1-0.1-0.1v-3.7c0-0.1,0-0.1,0.1-0.1c0,0,0.1-0.1,0.1-0.1h0.6c0.1,0,0.1,0,0.1,0.1c0,0,0.1,0.1,0.1,0.1v3.7     c0,0.1,0,0.1-0.1,0.1c0,0-0.1,0.1-0.1,0.1H76.8z"></path>				<path class="st1" d="M80.9,68.3c-0.4,0-0.8-0.1-1.1-0.2c-0.3-0.1-0.5-0.4-0.6-0.6c-0.1-0.3-0.2-0.6-0.3-0.9c0-0.1,0-0.2,0-0.3     c0-0.1,0-0.3,0-0.3c0-0.4,0.1-0.7,0.3-0.9c0.2-0.3,0.4-0.5,0.7-0.6c0.3-0.1,0.6-0.2,1-0.2c0.4,0,0.8,0.1,1,0.2     c0.3,0.1,0.5,0.4,0.7,0.6c0.2,0.3,0.2,0.6,0.3,0.9c0,0.1,0,0.2,0,0.3c0,0.1,0,0.3,0,0.3c0,0.4-0.1,0.7-0.3,0.9     c-0.1,0.3-0.4,0.5-0.6,0.6C81.6,68.3,81.3,68.3,80.9,68.3z M80.9,67.6c0.3,0,0.5-0.1,0.6-0.3c0.2-0.2,0.2-0.4,0.3-0.8     c0-0.1,0-0.2,0-0.3s0-0.2,0-0.3c0-0.3-0.1-0.6-0.3-0.8c-0.2-0.2-0.4-0.3-0.6-0.3c-0.3,0-0.5,0.1-0.6,0.3     c-0.2,0.2-0.2,0.4-0.3,0.8c0,0.1,0,0.2,0,0.3s0,0.2,0,0.3c0,0.3,0.1,0.6,0.3,0.8C80.4,67.5,80.6,67.6,80.9,67.6z"></path>				<path class="st1" d="M84.3,68.2c-0.1,0-0.1,0-0.1-0.1c0,0-0.1-0.1-0.1-0.1v-3.7c0-0.1,0-0.1,0.1-0.1c0,0,0.1-0.1,0.1-0.1h0.6     c0.1,0,0.1,0,0.1,0.1c0,0,0.1,0.1,0.1,0.1v0.3c0.1-0.2,0.3-0.3,0.5-0.4c0.2-0.1,0.5-0.2,0.8-0.2c0.3,0,0.6,0.1,0.8,0.2     c0.2,0.1,0.4,0.3,0.5,0.6c0.1,0.3,0.2,0.6,0.2,0.9v2.2c0,0.1,0,0.1-0.1,0.1c0,0-0.1,0.1-0.1,0.1h-0.7c-0.1,0-0.1,0-0.1-0.1     c0,0-0.1-0.1-0.1-0.1v-2.1c0-0.3-0.1-0.5-0.2-0.7c-0.1-0.2-0.4-0.3-0.6-0.3c-0.3,0-0.5,0.1-0.6,0.3c-0.2,0.2-0.2,0.4-0.2,0.7     v2.1c0,0.1,0,0.1-0.1,0.1c0,0-0.1,0.1-0.1,0.1H84.3z"></path>				<path class="st1" d="M90.9,68.3c-0.3,0-0.6,0-0.8-0.1c-0.2-0.1-0.4-0.2-0.5-0.3c-0.1-0.1-0.2-0.2-0.3-0.3     c-0.1-0.1-0.1-0.2-0.1-0.3c0-0.1,0-0.1,0.1-0.1c0,0,0.1-0.1,0.1-0.1h0.6c0,0,0,0,0.1,0c0,0,0,0,0.1,0c0.1,0.1,0.1,0.1,0.2,0.2     c0.1,0.1,0.2,0.1,0.3,0.2c0.1,0,0.2,0.1,0.4,0.1c0.2,0,0.4,0,0.5-0.1c0.1-0.1,0.2-0.2,0.2-0.3c0-0.1,0-0.2-0.1-0.3     s-0.2-0.1-0.3-0.2c-0.2-0.1-0.4-0.1-0.7-0.2c-0.3-0.1-0.5-0.2-0.7-0.3c-0.2-0.1-0.3-0.2-0.4-0.4c-0.1-0.2-0.1-0.3-0.1-0.5     c0-0.2,0.1-0.4,0.2-0.6c0.1-0.2,0.3-0.3,0.5-0.5c0.2-0.1,0.5-0.2,0.9-0.2c0.3,0,0.5,0,0.7,0.1c0.2,0.1,0.4,0.2,0.5,0.3     c0.1,0.1,0.2,0.2,0.3,0.3c0.1,0.1,0.1,0.2,0.1,0.3c0,0.1,0,0.1,0,0.1c0,0-0.1,0.1-0.1,0.1h-0.6c0,0,0,0-0.1,0c0,0,0,0-0.1,0     c-0.1-0.1-0.1-0.1-0.2-0.2c-0.1-0.1-0.1-0.1-0.2-0.2c-0.1,0-0.2-0.1-0.4-0.1c-0.2,0-0.3,0-0.5,0.1c-0.1,0.1-0.2,0.2-0.2,0.3     c0,0.1,0,0.2,0.1,0.2c0,0.1,0.2,0.1,0.3,0.2c0.2,0.1,0.4,0.1,0.7,0.2c0.3,0.1,0.6,0.2,0.8,0.3c0.2,0.1,0.4,0.3,0.4,0.4     c0.1,0.2,0.1,0.3,0.1,0.5c0,0.2-0.1,0.4-0.2,0.6c-0.1,0.2-0.3,0.3-0.6,0.4C91.6,68.3,91.3,68.3,90.9,68.3z"></path>				<path class="st1" d="M93.9,68.8c0,0-0.1,0-0.1,0c0,0,0-0.1,0-0.1l0.2-1.3c0-0.1,0-0.1,0.1-0.2c0-0.1,0.1-0.1,0.2-0.1h0.7     c0,0,0.1,0,0.1,0c0,0,0,0.1,0,0.1c0,0,0,0.1,0,0.1l-0.5,1.3c0,0.1-0.1,0.1-0.1,0.1c0,0-0.1,0.1-0.2,0.1H93.9z"></path>				<path class="st1" d="M100.7,68.3c-0.5,0-0.9-0.1-1.2-0.3c-0.3-0.2-0.6-0.4-0.8-0.7c-0.2-0.3-0.3-0.7-0.3-1.1c0-0.2,0-0.4,0-0.7     c0-0.2,0-0.5,0-0.7c0-0.4,0.1-0.8,0.3-1.1c0.2-0.3,0.4-0.6,0.8-0.7c0.3-0.2,0.7-0.3,1.2-0.3c0.4,0,0.7,0,1,0.1     c0.3,0.1,0.5,0.2,0.7,0.4c0.2,0.2,0.4,0.4,0.5,0.6c0.1,0.2,0.2,0.5,0.2,0.7c0,0,0,0.1,0,0.1c0,0-0.1,0-0.1,0h-0.7     c-0.1,0-0.1,0-0.1,0c0,0-0.1-0.1-0.1-0.1c-0.1-0.3-0.2-0.6-0.4-0.7c-0.2-0.1-0.5-0.2-0.8-0.2c-0.3,0-0.6,0.1-0.8,0.3     c-0.2,0.2-0.3,0.5-0.3,1c0,0.4,0,0.9,0,1.3c0,0.4,0.1,0.8,0.3,1c0.2,0.2,0.5,0.3,0.8,0.3c0.3,0,0.6-0.1,0.8-0.2     c0.2-0.1,0.3-0.4,0.4-0.7c0-0.1,0-0.1,0.1-0.1c0,0,0.1,0,0.1,0h0.7c0,0,0.1,0,0.1,0c0,0,0,0.1,0,0.1c0,0.3-0.1,0.5-0.2,0.7     c-0.1,0.2-0.3,0.4-0.5,0.6c-0.2,0.2-0.4,0.3-0.7,0.4C101.4,68.3,101.1,68.3,100.7,68.3z"></path>				<path class="st1" d="M104.5,68.2c-0.1,0-0.1,0-0.1-0.1c0,0-0.1-0.1-0.1-0.1v-3.7c0-0.1,0-0.1,0.1-0.1c0,0,0.1-0.1,0.1-0.1h0.6     c0.1,0,0.1,0,0.1,0.1c0,0,0.1,0.1,0.1,0.1v0.3c0.1-0.2,0.3-0.3,0.5-0.4c0.2-0.1,0.4-0.1,0.7-0.1h0.3c0.1,0,0.1,0,0.1,0.1     c0,0,0.1,0.1,0.1,0.1v0.6c0,0.1,0,0.1-0.1,0.1c0,0-0.1,0.1-0.1,0.1h-0.6c-0.3,0-0.4,0.1-0.6,0.2s-0.2,0.3-0.2,0.6v2.1     c0,0.1,0,0.1-0.1,0.1c0,0-0.1,0.1-0.1,0.1H104.5z"></path>				<path class="st1" d="M109.6,68.3c-0.6,0-1-0.2-1.4-0.5c-0.3-0.3-0.5-0.8-0.5-1.4c0-0.1,0-0.1,0-0.2c0-0.1,0-0.1,0-0.2     c0-0.4,0.1-0.7,0.3-1c0.2-0.3,0.4-0.5,0.7-0.7s0.6-0.2,1-0.2c0.4,0,0.8,0.1,1.1,0.3c0.3,0.2,0.5,0.4,0.6,0.7     c0.1,0.3,0.2,0.7,0.2,1.1v0.2c0,0.1,0,0.1-0.1,0.1c0,0-0.1,0.1-0.1,0.1h-2.6c0,0,0,0.1,0,0.1c0,0.2,0,0.4,0.1,0.5     s0.2,0.3,0.3,0.4c0.1,0.1,0.3,0.1,0.5,0.1c0.1,0,0.3,0,0.4-0.1c0.1,0,0.2-0.1,0.2-0.2c0.1-0.1,0.1-0.1,0.1-0.1     c0-0.1,0.1-0.1,0.1-0.1s0.1,0,0.1,0h0.7c0.1,0,0.1,0,0.1,0c0,0,0,0.1,0,0.1c0,0.1,0,0.2-0.1,0.3c-0.1,0.1-0.2,0.2-0.3,0.4     c-0.2,0.1-0.3,0.2-0.6,0.3C110.2,68.3,109.9,68.3,109.6,68.3z M108.8,65.9h1.7v0c0-0.2,0-0.4-0.1-0.5c-0.1-0.2-0.2-0.3-0.3-0.4     c-0.1-0.1-0.3-0.1-0.5-0.1c-0.2,0-0.3,0-0.5,0.1c-0.1,0.1-0.2,0.2-0.3,0.4C108.8,65.5,108.8,65.6,108.8,65.9L108.8,65.9z"></path>				<path class="st1" d="M114,68.3c-0.3,0-0.5-0.1-0.7-0.2c-0.2-0.1-0.4-0.3-0.5-0.4c-0.1-0.2-0.2-0.4-0.2-0.6     c0-0.4,0.1-0.7,0.4-0.9c0.3-0.2,0.7-0.4,1.2-0.4l1.1-0.2v-0.2c0-0.2-0.1-0.4-0.2-0.5c-0.1-0.1-0.3-0.2-0.6-0.2     c-0.2,0-0.3,0-0.5,0.1c-0.1,0.1-0.2,0.2-0.3,0.3c0,0.1-0.1,0.1-0.2,0.1h-0.6c-0.1,0-0.1,0-0.1,0c0,0,0-0.1,0-0.1     c0-0.1,0-0.2,0.1-0.3c0.1-0.1,0.2-0.2,0.3-0.3s0.3-0.2,0.5-0.3c0.2-0.1,0.5-0.1,0.8-0.1c0.3,0,0.6,0,0.8,0.1     c0.2,0.1,0.4,0.2,0.5,0.3c0.1,0.1,0.2,0.3,0.3,0.5c0.1,0.2,0.1,0.4,0.1,0.6v2.5c0,0.1,0,0.1-0.1,0.1c0,0-0.1,0.1-0.1,0.1h-0.6     c-0.1,0-0.1,0-0.1-0.1c0,0-0.1-0.1-0.1-0.1v-0.3c-0.1,0.1-0.2,0.2-0.3,0.3c-0.1,0.1-0.3,0.2-0.4,0.2     C114.4,68.3,114.2,68.3,114,68.3z M114.2,67.6c0.2,0,0.3,0,0.5-0.1c0.1-0.1,0.3-0.2,0.4-0.4c0.1-0.2,0.1-0.4,0.1-0.6v-0.2     l-0.8,0.1c-0.3,0-0.5,0.1-0.7,0.2c-0.2,0.1-0.2,0.2-0.2,0.4c0,0.1,0,0.2,0.1,0.3c0.1,0.1,0.2,0.1,0.3,0.2     C114,67.6,114.1,67.6,114.2,67.6z"></path>				<path class="st1" d="M119.4,68.2c-0.3,0-0.6-0.1-0.8-0.2c-0.2-0.1-0.4-0.3-0.5-0.5c-0.1-0.2-0.2-0.5-0.2-0.8V65h-0.6     c-0.1,0-0.1,0-0.1-0.1c0,0-0.1-0.1-0.1-0.1v-0.4c0-0.1,0-0.1,0.1-0.1c0,0,0.1-0.1,0.1-0.1h0.6v-1.3c0-0.1,0-0.1,0.1-0.1     c0,0,0.1-0.1,0.1-0.1h0.6c0.1,0,0.1,0,0.1,0.1c0,0,0.1,0.1,0.1,0.1v1.3h1c0.1,0,0.1,0,0.1,0.1c0,0,0.1,0.1,0.1,0.1v0.4     c0,0.1,0,0.1-0.1,0.1S120,65,120,65h-1v1.7c0,0.2,0,0.4,0.1,0.5c0.1,0.1,0.2,0.2,0.4,0.2h0.5c0.1,0,0.1,0,0.1,0.1     c0,0,0.1,0.1,0.1,0.1v0.5c0,0.1,0,0.1-0.1,0.1c0,0-0.1,0.1-0.1,0.1H119.4z"></path>				<path class="st1" d="M121.5,63.5c-0.1,0-0.1,0-0.1-0.1c0,0-0.1-0.1-0.1-0.1v-0.6c0-0.1,0-0.1,0.1-0.1s0.1-0.1,0.1-0.1h0.7     c0.1,0,0.1,0,0.1,0.1c0,0,0.1,0.1,0.1,0.1v0.6c0,0.1,0,0.1-0.1,0.1c0,0-0.1,0.1-0.1,0.1H121.5z M121.5,68.2     c-0.1,0-0.1,0-0.1-0.1c0,0-0.1-0.1-0.1-0.1v-3.7c0-0.1,0-0.1,0.1-0.1c0,0,0.1-0.1,0.1-0.1h0.6c0.1,0,0.1,0,0.1,0.1     c0,0,0.1,0.1,0.1,0.1v3.7c0,0.1,0,0.1-0.1,0.1c0,0-0.1,0.1-0.1,0.1H121.5z"></path>				<path class="st1" d="M124,68.2c-0.1,0-0.1,0-0.1-0.1c0,0-0.1-0.1-0.1-0.1v-3.7c0-0.1,0-0.1,0.1-0.1c0,0,0.1-0.1,0.1-0.1h0.6     c0.1,0,0.1,0,0.1,0.1c0,0,0.1,0.1,0.1,0.1v0.3c0.1-0.2,0.3-0.3,0.5-0.4c0.2-0.1,0.5-0.2,0.8-0.2c0.3,0,0.6,0.1,0.8,0.2     c0.2,0.1,0.4,0.3,0.5,0.6c0.1,0.3,0.2,0.6,0.2,0.9v2.2c0,0.1,0,0.1-0.1,0.1c0,0-0.1,0.1-0.1,0.1h-0.7c-0.1,0-0.1,0-0.1-0.1     c0,0-0.1-0.1-0.1-0.1v-2.1c0-0.3-0.1-0.5-0.2-0.7c-0.1-0.2-0.4-0.3-0.6-0.3c-0.3,0-0.5,0.1-0.6,0.3c-0.2,0.2-0.2,0.4-0.2,0.7     v2.1c0,0.1,0,0.1-0.1,0.1c0,0-0.1,0.1-0.1,0.1H124z"></path>				<path class="st1" d="M130.9,70c-0.4,0-0.7,0-0.9-0.1c-0.2-0.1-0.4-0.2-0.6-0.4c-0.1-0.1-0.2-0.3-0.3-0.4     c-0.1-0.1-0.1-0.2-0.1-0.3c0-0.1,0-0.1,0.1-0.1c0,0,0.1-0.1,0.1-0.1h0.7c0.1,0,0.1,0,0.1,0c0,0,0.1,0.1,0.1,0.1     c0,0.1,0.1,0.1,0.1,0.2c0.1,0.1,0.1,0.1,0.2,0.2c0.1,0.1,0.3,0.1,0.4,0.1c0.2,0,0.4,0,0.5-0.1c0.1-0.1,0.2-0.2,0.3-0.3     c0.1-0.1,0.1-0.3,0.1-0.6v-0.5c-0.1,0.2-0.3,0.3-0.5,0.4c-0.2,0.1-0.4,0.1-0.7,0.1c-0.3,0-0.5,0-0.7-0.1     c-0.2-0.1-0.4-0.2-0.5-0.4c-0.1-0.2-0.2-0.4-0.3-0.6c-0.1-0.2-0.1-0.5-0.1-0.7c0-0.1,0-0.3,0-0.4c0-0.3,0.1-0.5,0.1-0.7     c0.1-0.2,0.2-0.4,0.3-0.6c0.1-0.2,0.3-0.3,0.5-0.4s0.4-0.1,0.7-0.1c0.3,0,0.5,0.1,0.8,0.2c0.2,0.1,0.4,0.3,0.5,0.4v-0.3     c0-0.1,0-0.1,0.1-0.1c0,0,0.1-0.1,0.1-0.1h0.6c0.1,0,0.1,0,0.1,0.1c0,0,0.1,0.1,0.1,0.1l0,3.8c0,0.4-0.1,0.7-0.2,1     c-0.1,0.3-0.4,0.5-0.6,0.6C131.7,69.9,131.3,70,130.9,70z M130.8,67.4c0.2,0,0.4,0,0.5-0.1c0.1-0.1,0.2-0.2,0.3-0.4     c0.1-0.2,0.1-0.3,0.1-0.5c0-0.1,0-0.2,0-0.3c0-0.1,0-0.2,0-0.3c0-0.2,0-0.3-0.1-0.5c-0.1-0.1-0.2-0.3-0.3-0.4     c-0.1-0.1-0.3-0.1-0.5-0.1c-0.2,0-0.4,0-0.5,0.1c-0.1,0.1-0.2,0.2-0.3,0.4c-0.1,0.2-0.1,0.3-0.1,0.5c0,0.1,0,0.3,0,0.4     c0,0.2,0,0.4,0.1,0.5c0.1,0.2,0.1,0.3,0.3,0.4C130.5,67.3,130.6,67.4,130.8,67.4z"></path>				<path class="st1" d="M136.7,68.2c-0.1,0-0.1,0-0.1-0.1c0,0-0.1-0.1-0.1-0.1V63c0-0.1,0-0.1,0.1-0.1c0,0,0.1-0.1,0.1-0.1h0.6     c0.1,0,0.1,0,0.2,0.1c0,0,0.1,0.1,0.1,0.1l1.5,2.8l1.5-2.8c0,0,0-0.1,0.1-0.1c0,0,0.1-0.1,0.2-0.1h0.6c0.1,0,0.1,0,0.1,0.1     c0,0,0.1,0.1,0.1,0.1v5.1c0,0.1,0,0.1-0.1,0.1c0,0-0.1,0.1-0.1,0.1h-0.7c-0.1,0-0.1,0-0.1-0.1c0,0-0.1-0.1-0.1-0.1v-3.4     l-1.1,2.1c0,0-0.1,0.1-0.1,0.1c0,0-0.1,0.1-0.2,0.1h-0.3c-0.1,0-0.1,0-0.2-0.1c0,0-0.1-0.1-0.1-0.1l-1.1-2.1v3.4     c0,0.1,0,0.1-0.1,0.1c0,0-0.1,0.1-0.1,0.1H136.7z"></path>				<path class="st1" d="M144.9,68.3c-0.6,0-1-0.2-1.4-0.5c-0.3-0.3-0.5-0.8-0.5-1.4c0-0.1,0-0.1,0-0.2c0-0.1,0-0.1,0-0.2     c0-0.4,0.1-0.7,0.3-1s0.4-0.5,0.7-0.7c0.3-0.2,0.6-0.2,1-0.2c0.4,0,0.8,0.1,1.1,0.3c0.3,0.2,0.5,0.4,0.6,0.7     c0.1,0.3,0.2,0.7,0.2,1.1v0.2c0,0.1,0,0.1-0.1,0.1c0,0-0.1,0.1-0.1,0.1h-2.6c0,0,0,0.1,0,0.1c0,0.2,0,0.4,0.1,0.5     c0.1,0.2,0.2,0.3,0.3,0.4c0.1,0.1,0.3,0.1,0.5,0.1c0.1,0,0.3,0,0.4-0.1c0.1,0,0.2-0.1,0.2-0.2c0.1-0.1,0.1-0.1,0.1-0.1     c0-0.1,0.1-0.1,0.1-0.1c0,0,0.1,0,0.1,0h0.7c0.1,0,0.1,0,0.1,0c0,0,0,0.1,0,0.1c0,0.1,0,0.2-0.1,0.3c-0.1,0.1-0.2,0.2-0.3,0.4     c-0.2,0.1-0.3,0.2-0.6,0.3C145.5,68.3,145.2,68.3,144.9,68.3z M144.1,65.9h1.7v0c0-0.2,0-0.4-0.1-0.5c-0.1-0.2-0.2-0.3-0.3-0.4     c-0.1-0.1-0.3-0.1-0.5-0.1c-0.2,0-0.3,0-0.5,0.1c-0.1,0.1-0.2,0.2-0.3,0.4C144.1,65.5,144.1,65.6,144.1,65.9L144.1,65.9z"></path>				<path class="st1" d="M148.3,68.2c-0.1,0-0.1,0-0.1-0.1c0,0-0.1-0.1-0.1-0.1v-3.7c0-0.1,0-0.1,0.1-0.1c0,0,0.1-0.1,0.1-0.1h0.6     c0.1,0,0.1,0,0.1,0.1c0,0,0.1,0.1,0.1,0.1v0.3c0.1-0.1,0.3-0.3,0.4-0.4c0.2-0.1,0.4-0.2,0.7-0.2c0.6,0,1,0.2,1.2,0.7     c0.1-0.2,0.3-0.4,0.5-0.5c0.2-0.1,0.5-0.2,0.8-0.2c0.3,0,0.5,0.1,0.7,0.2c0.2,0.1,0.4,0.3,0.5,0.6c0.1,0.3,0.2,0.6,0.2,1v2.2     c0,0.1,0,0.1-0.1,0.1c0,0-0.1,0.1-0.1,0.1h-0.6c-0.1,0-0.1,0-0.1-0.1c0,0-0.1-0.1-0.1-0.1v-2.2c0-0.2,0-0.4-0.1-0.6     c-0.1-0.1-0.2-0.2-0.3-0.3c-0.1-0.1-0.2-0.1-0.4-0.1c-0.1,0-0.2,0-0.3,0.1c-0.1,0.1-0.2,0.2-0.3,0.3c-0.1,0.1-0.1,0.3-0.1,0.6     v2.2c0,0.1,0,0.1-0.1,0.1c0,0-0.1,0.1-0.1,0.1h-0.6c-0.1,0-0.1,0-0.1-0.1c0,0-0.1-0.1-0.1-0.1v-2.2c0-0.2,0-0.4-0.1-0.6     c-0.1-0.1-0.2-0.2-0.3-0.3c-0.1-0.1-0.2-0.1-0.4-0.1c-0.1,0-0.2,0-0.4,0.1c-0.1,0.1-0.2,0.2-0.3,0.3c-0.1,0.1-0.1,0.3-0.1,0.6     v2.2c0,0.1,0,0.1-0.1,0.1c0,0-0.1,0.1-0.1,0.1H148.3z"></path>				<path class="st1" d="M157.3,68.3c-0.4,0-0.8-0.1-1.1-0.2c-0.3-0.1-0.5-0.4-0.6-0.6s-0.2-0.6-0.3-0.9c0-0.1,0-0.2,0-0.3     c0-0.1,0-0.3,0-0.3c0-0.4,0.1-0.7,0.3-0.9c0.2-0.3,0.4-0.5,0.7-0.6c0.3-0.1,0.6-0.2,1-0.2c0.4,0,0.8,0.1,1,0.2     c0.3,0.1,0.5,0.4,0.7,0.6c0.2,0.3,0.2,0.6,0.3,0.9c0,0.1,0,0.2,0,0.3c0,0.1,0,0.3,0,0.3c0,0.4-0.1,0.7-0.3,0.9     c-0.1,0.3-0.4,0.5-0.6,0.6C158.1,68.3,157.7,68.3,157.3,68.3z M157.3,67.6c0.3,0,0.5-0.1,0.6-0.3c0.2-0.2,0.2-0.4,0.3-0.8     c0-0.1,0-0.2,0-0.3s0-0.2,0-0.3c0-0.3-0.1-0.6-0.3-0.8c-0.2-0.2-0.4-0.3-0.6-0.3c-0.3,0-0.5,0.1-0.6,0.3     c-0.2,0.2-0.2,0.4-0.3,0.8c0,0.1,0,0.2,0,0.3s0,0.2,0,0.3c0,0.3,0.1,0.6,0.3,0.8C156.8,67.5,157,67.6,157.3,67.6z"></path>				<path class="st1" d="M160.7,68.2c-0.1,0-0.1,0-0.1-0.1c0,0-0.1-0.1-0.1-0.1v-3.7c0-0.1,0-0.1,0.1-0.1c0,0,0.1-0.1,0.1-0.1h0.6     c0.1,0,0.1,0,0.1,0.1c0,0,0.1,0.1,0.1,0.1v0.3c0.1-0.2,0.3-0.3,0.5-0.4s0.4-0.1,0.7-0.1h0.3c0.1,0,0.1,0,0.1,0.1     c0,0,0.1,0.1,0.1,0.1v0.6c0,0.1,0,0.1-0.1,0.1c0,0-0.1,0.1-0.1,0.1h-0.6c-0.3,0-0.4,0.1-0.6,0.2s-0.2,0.3-0.2,0.6v2.1     c0,0.1,0,0.1-0.1,0.1c0,0-0.1,0.1-0.1,0.1H160.7z"></path>				<path class="st1" d="M164.3,63.5c-0.1,0-0.1,0-0.1-0.1c0,0-0.1-0.1-0.1-0.1v-0.6c0-0.1,0-0.1,0.1-0.1c0,0,0.1-0.1,0.1-0.1h0.7     c0.1,0,0.1,0,0.1,0.1c0,0,0.1,0.1,0.1,0.1v0.6c0,0.1,0,0.1-0.1,0.1c0,0-0.1,0.1-0.1,0.1H164.3z M164.4,68.2     c-0.1,0-0.1,0-0.1-0.1c0,0-0.1-0.1-0.1-0.1v-3.7c0-0.1,0-0.1,0.1-0.1c0,0,0.1-0.1,0.1-0.1h0.6c0.1,0,0.1,0,0.1,0.1     c0,0,0.1,0.1,0.1,0.1v3.7c0,0.1,0,0.1-0.1,0.1c0,0-0.1,0.1-0.1,0.1H164.4z"></path>				<path class="st1" d="M168.4,68.3c-0.6,0-1-0.2-1.4-0.5c-0.3-0.3-0.5-0.8-0.5-1.4c0-0.1,0-0.1,0-0.2c0-0.1,0-0.1,0-0.2     c0-0.4,0.1-0.7,0.3-1s0.4-0.5,0.7-0.7c0.3-0.2,0.6-0.2,1-0.2c0.4,0,0.8,0.1,1.1,0.3c0.3,0.2,0.5,0.4,0.6,0.7     c0.1,0.3,0.2,0.7,0.2,1.1v0.2c0,0.1,0,0.1-0.1,0.1c0,0-0.1,0.1-0.1,0.1h-2.6c0,0,0,0.1,0,0.1c0,0.2,0,0.4,0.1,0.5     c0.1,0.2,0.2,0.3,0.3,0.4c0.1,0.1,0.3,0.1,0.5,0.1c0.1,0,0.3,0,0.4-0.1c0.1,0,0.2-0.1,0.2-0.2c0.1-0.1,0.1-0.1,0.1-0.1     c0-0.1,0.1-0.1,0.1-0.1s0.1,0,0.1,0h0.7c0.1,0,0.1,0,0.1,0c0,0,0,0.1,0,0.1c0,0.1,0,0.2-0.1,0.3c-0.1,0.1-0.2,0.2-0.3,0.4     c-0.2,0.1-0.3,0.2-0.6,0.3C168.9,68.3,168.7,68.3,168.4,68.3z M167.5,65.9h1.7v0c0-0.2,0-0.4-0.1-0.5c-0.1-0.2-0.2-0.3-0.3-0.4     c-0.1-0.1-0.3-0.1-0.5-0.1c-0.2,0-0.3,0-0.5,0.1c-0.1,0.1-0.2,0.2-0.3,0.4C167.5,65.5,167.5,65.6,167.5,65.9L167.5,65.9z"></path>				<path class="st1" d="M173.1,68.3c-0.3,0-0.6,0-0.8-0.1c-0.2-0.1-0.4-0.2-0.5-0.3c-0.1-0.1-0.2-0.2-0.3-0.3s-0.1-0.2-0.1-0.3     c0-0.1,0-0.1,0.1-0.1c0,0,0.1-0.1,0.1-0.1h0.6c0,0,0,0,0.1,0c0,0,0,0,0.1,0c0.1,0.1,0.1,0.1,0.2,0.2c0.1,0.1,0.2,0.1,0.3,0.2     c0.1,0,0.2,0.1,0.4,0.1c0.2,0,0.4,0,0.5-0.1c0.1-0.1,0.2-0.2,0.2-0.3c0-0.1,0-0.2-0.1-0.3c-0.1-0.1-0.2-0.1-0.3-0.2     c-0.2-0.1-0.4-0.1-0.7-0.2c-0.3-0.1-0.5-0.2-0.7-0.3c-0.2-0.1-0.3-0.2-0.4-0.4c-0.1-0.2-0.1-0.3-0.1-0.5c0-0.2,0.1-0.4,0.2-0.6     c0.1-0.2,0.3-0.3,0.5-0.5c0.2-0.1,0.5-0.2,0.9-0.2c0.3,0,0.5,0,0.7,0.1c0.2,0.1,0.4,0.2,0.5,0.3c0.1,0.1,0.2,0.2,0.3,0.3     c0.1,0.1,0.1,0.2,0.1,0.3c0,0.1,0,0.1,0,0.1c0,0-0.1,0.1-0.1,0.1H174c0,0,0,0-0.1,0c0,0,0,0-0.1,0c-0.1-0.1-0.1-0.1-0.2-0.2     c-0.1-0.1-0.1-0.1-0.2-0.2c-0.1,0-0.2-0.1-0.4-0.1c-0.2,0-0.3,0-0.5,0.1c-0.1,0.1-0.2,0.2-0.2,0.3c0,0.1,0,0.2,0.1,0.2     s0.1,0.1,0.3,0.2c0.2,0.1,0.4,0.1,0.7,0.2c0.3,0.1,0.6,0.2,0.8,0.3c0.2,0.1,0.4,0.3,0.4,0.4c0.1,0.2,0.1,0.3,0.1,0.5     c0,0.2-0.1,0.4-0.2,0.6c-0.1,0.2-0.3,0.3-0.6,0.4C173.8,68.3,173.5,68.3,173.1,68.3z"></path>			</g>		</g>	</g></g></svg>